<svg width="232" height="51" viewBox="0 0 232 51" fill="none" xmlns="http://www.w3.org/2000/svg">
<path d="M15.5645 32.1683C18.1648 25.3506 20.6594 18.8193 23.1726 12.249H27.7138C28.8709 21.0007 30.003 29.6874 31.0917 38.6149C30.1212 38.6149 29.3747 38.6149 28.6034 38.6149C28.031 38.6149 27.4587 38.5693 26.7931 38.5368C26.0217 32.6111 25.2628 26.7831 24.4479 20.5384L17.5738 38.5172H13.5552L6.71228 20.7598C6.09019 24.0157 5.8227 26.9329 5.46811 29.8306C5.11352 32.7283 4.6843 35.587 4.27372 38.5237H0L3.40279 12.2686H7.91912C10.4074 18.7282 12.8958 25.305 15.5645 32.1683Z" fill="#152124"/>
<path d="M55.6035 29.8962L59.336 28.926C59.5724 29.5446 59.7404 29.9874 59.9145 30.4302C60.3327 31.5844 61.0597 32.5882 62.0084 33.3214C62.9571 34.0547 64.0875 34.4865 65.2645 34.5651C67.0996 34.793 68.8974 34.7474 70.5522 33.7902C72.3686 32.7418 72.829 30.2283 71.4417 28.8153C70.7262 28.0694 69.7639 27.6404 68.7543 27.6171C67.2862 27.578 65.8181 27.565 64.3438 27.5325C63.8834 27.5325 63.4293 27.4869 62.8508 27.4608V23.2803C64.0949 23.2803 65.308 23.2803 66.5211 23.2152C67.6372 23.2918 68.7554 23.1048 69.7932 22.6682C70.2828 22.4598 70.7056 22.1095 71.0119 21.6586C71.3182 21.2077 71.4953 20.6747 71.5226 20.1221C71.5808 19.5109 71.4727 18.895 71.2108 18.3453C70.9488 17.7957 70.5436 17.3349 70.042 17.0161C69.0212 16.4002 67.8609 16.0831 66.6828 16.0979C64.9596 16.0263 63.2613 16.2868 61.8803 17.4784C61.3015 17.9899 60.8038 18.5943 60.406 19.2691C60.0032 20.0604 59.65 20.8783 59.3485 21.7175C58.1043 21.8608 56.941 21.2812 55.616 20.9101C55.6836 19.247 56.2568 17.6501 57.252 16.3519C58.1437 15.0087 59.3218 13.9011 60.693 13.1168C62.0642 12.3325 63.591 11.8929 65.1525 11.8328C67.8015 11.5169 70.4734 12.1678 72.717 13.6756C75.6097 15.7202 76.6983 19.4059 75.2053 22.4989C74.6042 23.4876 73.9148 24.4142 73.1462 25.2664C73.282 25.4108 73.4322 25.5396 73.5941 25.6506C77.2582 27.8906 77.8678 33.6795 73.5506 36.8442C70.5895 39.0126 67.2738 39.3902 63.7839 38.674C59.6346 37.8274 57.0343 35.2293 55.7715 31.1074C55.6867 30.7086 55.6305 30.3037 55.6035 29.8962V29.8962Z" fill="#152124"/>
<path d="M125.227 12.2754V38.6152C124.337 38.6152 123.529 38.6152 122.739 38.6152C122.222 38.6152 121.712 38.5631 121.034 38.524V16.6578H112.001C111.46 17.2178 111.572 18.0382 111.516 18.8066C111.261 22.3881 111.093 25.9695 110.726 29.5444C110.584 31.7409 109.945 33.8704 108.86 35.7566C108.346 36.5779 107.657 37.2635 106.848 37.7594C106.038 38.2554 105.13 38.5483 104.194 38.6152C103.678 38.6803 103.155 38.6999 102.459 38.7585C102.297 37.4561 102.135 36.1538 101.961 34.7212C102.295 34.5125 102.658 34.3587 103.037 34.2654C104.866 34.1026 105.768 32.8979 106.085 31.2244C106.434 29.3767 106.677 27.5088 106.813 25.6309C107.137 21.3853 107.367 17.1657 107.647 12.8875C107.688 12.6799 107.748 12.477 107.827 12.2819L125.227 12.2754Z" fill="#152124"/>
<path d="M88.2111 27.6886H85.2998V38.3222C84.5408 38.7911 83.8254 38.5762 83.1474 38.6088C82.4693 38.6413 81.7477 38.6088 81.0758 38.6088C80.715 37.2153 80.5906 15.8895 80.9016 12.3796C81.5237 11.9824 82.2329 12.2038 82.911 12.1713C83.589 12.1387 84.3107 12.1713 85.2127 12.1713C85.362 15.8374 85.2127 19.4058 85.3122 23.0002C86.2204 23.3649 87.0914 23.1565 88.124 23.1956L96.5035 12.2429H101.735L91.7819 25.3965L101.698 38.5306H96.4662L88.2111 27.6886Z" fill="#152124"/>
<path d="M138.807 12.21H143.242C146.757 20.8835 150.297 29.6027 153.899 38.4847H149.37L146.446 31.3218H135.597L132.623 38.5433H128.113L138.807 12.21ZM141.015 17.771L137.252 27.1152C138.583 27.1152 139.74 27.1152 140.916 27.1152C142.187 27.1599 143.46 27.1317 144.729 27.0306C143.485 23.9375 142.328 21.0398 141.046 17.771H141.015Z" fill="#152124"/>
<path d="M205.008 38.4383V12.3068C206.453 12.1174 207.914 12.0999 209.362 12.2547C209.468 15.5106 209.362 18.6883 209.437 22.0223C211.198 22.0223 212.827 22.0223 214.457 22.0223C216.087 22.0223 217.729 21.9442 219.322 22.5823C222.563 23.8846 224.417 26.307 224.591 29.8298C224.759 33.1833 223.297 35.8271 220.411 37.4876C219.289 38.1691 218.019 38.5389 216.722 38.562C213.026 38.562 209.325 38.562 205.624 38.562C205.415 38.5404 205.209 38.499 205.008 38.4383V38.4383ZM209.518 34.3945C211.739 34.3945 213.835 34.4401 215.932 34.3945C216.688 34.3512 217.432 34.1682 218.128 33.854C219.652 33.2029 220.187 31.8159 220.336 30.2596C219.714 27.5312 218.998 26.6261 216.417 26.3526C214.165 26.1247 211.882 26.307 209.518 26.307V34.3945Z" fill="#152124"/>
<path d="M31.5586 12.249H36.4979L43.6581 26.2622C45.0267 23.8919 46.0158 21.5217 47.1542 19.2426C48.2926 16.9635 49.4248 14.5867 50.5632 12.249H55.3595C51.0609 21.118 46.8307 29.8306 42.5757 38.6084C41.3315 38.6084 40.1309 38.6084 38.9614 38.6084C38.6752 38.6084 38.3891 38.5563 37.8603 38.5042L41.3191 31.2306L31.5586 12.249Z" fill="#152124"/>
<path d="M232 38.5348H228.056L227.932 38.3915C227.932 38.3459 227.845 38.2938 227.845 38.2483C227.845 29.8482 227.828 21.4524 227.795 13.061C227.81 12.7944 227.841 12.529 227.888 12.2666H232V38.5348Z" fill="#152124"/>
<path d="M157.473 15.3613H150.941V16.4097H157.679L157.473 15.3613Z" fill="#152124"/>
<path d="M164.061 15.3613L164.297 16.4097H200.763V15.3613H164.061Z" fill="#152124"/>
<path d="M180.087 34.3379H156.398V35.3212H180.237L180.087 34.3379Z" fill="#152124"/>
<path d="M186.396 34.3379L186.639 35.3212H200.767V34.3379H186.396Z" fill="#152124"/>
<path d="M189.96 27.1868C189.96 27.747 190.064 28.3019 190.265 28.8213C190.471 29.3404 190.773 29.8118 191.154 30.2083C191.531 30.6049 191.979 30.9192 192.473 31.1329C192.968 31.3475 193.499 31.4582 194.034 31.4585C194.57 31.4587 195.101 31.348 195.596 31.1329C196.092 30.9194 196.542 30.6051 196.921 30.2083C197.3 29.8116 197.6 29.3401 197.804 28.8213C198.01 28.3032 198.115 27.7478 198.115 27.1868V26.9719C198.178 25.3185 197.663 23.6979 196.666 22.4137C196.192 21.7813 195.638 21.2203 195.017 20.7468C194.492 20.3555 193.929 20.0237 193.338 19.757H193.195L193.014 19.6919C191.863 19.23 190.65 18.9619 189.419 18.8974C188.556 18.8633 187.693 18.9576 186.856 19.1774C186.397 19.2632 185.944 19.3785 185.499 19.5226C182.886 20.4836 180.735 22.4741 179.503 25.0705C179.107 26.0184 178.853 27.0243 178.75 28.0529C178.351 29.9941 178.423 32.0092 178.961 33.9134C179.733 36.7721 181.196 39.3739 183.21 41.467C183.322 41.5972 183.459 41.7274 183.608 41.8772C186.557 45.0167 189.924 47.6926 193.605 49.8215L193.698 49.8801L193.804 49.9582C194.446 50.3572 195.116 50.7055 195.807 51.0001C195.883 50.8944 195.951 50.7835 196.013 50.668C196.305 50.1666 196.684 49.4438 196.784 49.2615C189.288 44.8075 185.518 39.7088 183.969 35.0139C183.756 34.134 183.616 33.2363 183.552 32.3311V30.8269C183.628 28.9109 184.131 27.04 185.02 25.3635C185.29 24.8669 185.598 24.3943 185.941 23.9505C186.16 23.7255 186.368 23.4885 186.563 23.2407C187.573 22.1443 188.841 21.3468 190.24 20.9291C193.163 20.2779 194.594 21.7951 195.216 23.3058C194.844 23.1814 194.456 23.1177 194.065 23.117C193.001 23.1053 191.975 23.5335 191.21 24.3086C190.453 25.0621 190.004 26.0941 189.96 27.1868Z" fill="#152124"/>
<path d="M166.904 8.3548C166.95 9.4478 167.396 10.4805 168.149 11.2395C168.907 11.9993 169.917 12.4238 170.967 12.4246C172.017 12.4251 173.027 12.0005 173.785 11.2395C174.537 10.4802 174.982 9.44764 175.029 8.3548C175.035 8.27679 175.035 8.19838 175.029 8.12037C175.098 6.46712 174.585 4.84486 173.586 3.56219C173.104 2.92789 172.538 2.36876 171.906 1.9017C171.362 1.50938 170.775 1.18588 170.158 0.937974L169.978 0.866345L169.797 0.801234C168.648 0.333227 167.433 0.064883 166.201 0.00680629C165.339 -0.0273111 164.476 0.0669594 163.639 0.286804C163.182 0.369477 162.731 0.484785 162.289 0.631924C159.675 1.59116 157.522 3.58222 156.292 6.17989C155.888 7.12514 155.632 8.13205 155.533 9.16225C155.138 11.1042 155.213 13.1188 155.751 15.0228C156.527 17.8723 157.987 20.4661 159.993 22.5568L160.391 22.9605C163.353 26.1103 166.737 28.791 170.438 30.9178L170.531 30.9764L170.631 31.0415C171.271 31.459 171.938 31.8289 172.628 32.1485C172.69 32.0639 172.758 31.9402 172.839 31.8034C173.125 31.302 173.505 30.5727 173.61 30.4034C166.102 25.9364 162.338 20.8507 160.783 16.1493C160.485 14.9482 160.341 13.711 160.354 12.4702V11.9362C160.428 10.0262 160.931 8.16126 161.822 6.49245C162.091 5.99159 162.399 5.51464 162.743 5.06639C162.962 4.84579 163.169 4.61322 163.365 4.36964C164.37 3.27128 165.637 2.47333 167.035 2.05799C169.965 1.40682 171.39 2.92404 172.012 4.42824C171.681 4.30392 171.336 4.22724 170.985 4.20033C169.91 4.19118 168.875 4.62642 168.105 5.41151C167.356 6.19268 166.925 7.24791 166.904 8.3548V8.3548Z" fill="#152124"/>
</svg>
